<svg width="188" height="53" viewBox="0 0 188 53" fill="none" xmlns="http://www.w3.org/2000/svg">
<path d="M22.128 31.368C22.08 34.152 20.496 38.808 14.256 38.808C8.976 38.808 5.76 35.736 5.28 32.04C5.04 30.264 3.648 29.736 2.64 30.168C1.344 30.696 1.248 32.472 1.728 33.528C3.888 38.52 9.84 39.528 14.256 39.528C21.552 39.528 25.968 35.496 25.968 29.448C25.968 19.368 7.104 16.536 7.104 10.728C7.104 8.376 9.024 5.64 13.536 5.64C18.048 5.64 20.16 6.6 21.264 10.488C21.648 11.832 22.992 12.456 24.336 11.688C25.68 10.92 25.296 9.288 24.528 8.472C21.792 5.592 17.616 4.92 13.536 4.92C9.456 4.92 3.264 6.408 3.264 11.688C3.264 20.28 22.032 20.52 22.128 31.368ZM39.3994 15.192C42.2314 15.192 43.9594 17.112 44.8234 19.752C45.1114 20.808 45.1594 21.576 44.1994 22.44C39.7354 26.328 29.7994 24.744 29.7994 33.048C29.7994 37.224 33.3514 39.528 37.2874 39.528C40.8394 39.528 43.4794 37.08 44.9194 32.856C45.2074 32.04 45.4474 32.424 45.4474 33.048V35.592C45.4474 38.376 47.2714 39.528 49.7194 39.528C51.8314 39.528 52.5994 38.904 53.1754 37.704C53.2714 37.512 53.3194 37.224 53.0794 37.128C52.8394 37.032 52.6474 37.224 52.5034 37.464C52.2154 37.944 52.0234 38.808 50.6794 38.808C49.5754 38.808 49.2874 37.8 49.2874 35.592V24.072C49.2874 18.216 46.0714 14.472 39.3994 14.472C35.8954 14.472 33.8794 15.192 31.8634 17.496C30.9994 18.456 30.9994 19.992 32.1034 20.712C33.2074 21.432 34.5514 21 35.0314 19.704C36.0394 17.112 36.0394 15.192 39.3994 15.192ZM37.7674 38.808C34.2634 38.808 33.6394 34.872 33.6394 32.568C33.6394 25.176 40.5994 26.616 44.5354 23.256C45.1114 22.824 45.4474 23.016 45.4474 24.072V24.456C45.4474 32.424 42.8554 38.808 37.7674 38.808ZM64.2278 39H64.9478L73.7318 16.104C74.3078 15.144 75.2678 15.336 76.2278 15.336L76.3718 15H71.1878L71.0438 15.336C72.0518 15.336 73.2518 15.144 72.9158 16.344L66.1478 34.008L59.3798 16.344C59.0438 15.144 60.2438 15.336 61.2518 15.336L61.1078 15H52.8038L52.9478 15.336C53.9078 15.336 54.8678 15.144 55.4438 16.104L64.2278 39ZM76.9088 27C76.9088 33 80.9408 39.528 87.5168 39.528C94.0928 39.528 98.1248 33 98.1248 27C98.1248 21 94.0928 14.472 87.5168 14.472C80.9408 14.472 76.9088 21 76.9088 27ZM80.7968 27.96C80.0288 22.488 81.5648 15.912 85.8848 15.288C90.2048 14.712 93.4688 20.568 94.2368 26.04C95.0048 31.512 93.4688 38.088 89.1488 38.712C84.8288 39.288 81.5648 33.432 80.7968 27.96ZM120.815 35.592C120.815 38.376 122.639 39.528 125.087 39.528C127.199 39.528 127.967 38.904 128.543 37.704C128.639 37.512 128.687 37.224 128.447 37.128C128.207 37.032 128.015 37.224 127.871 37.464C127.583 37.944 127.391 38.808 126.047 38.808C124.943 38.808 124.655 37.8 124.655 35.592V14.472L118.559 15.72V15.96C119.855 15.96 120.815 16.056 120.815 17.736V28.152C120.767 34.344 117.743 38.808 113.615 38.808C109.343 38.808 107.567 34.488 107.567 29.928V14.472L101.471 15.72V15.96C102.767 15.96 103.727 16.056 103.727 17.736V29.928C103.727 35.784 106.943 39.528 113.615 39.528C116.543 39.528 118.943 37.704 120.287 34.68C120.623 34.104 120.815 34.248 120.815 35.16V35.592ZM133.785 37.464C133.785 38.904 132.585 38.664 131.529 38.664V39H139.881V38.664C138.825 38.664 137.625 38.904 137.625 37.464V25.368C137.673 17.256 143.049 17.832 146.265 17.832C148.281 17.832 149.145 17.256 149.145 16.056C149.145 14.904 148.281 14.472 146.745 14.472C143.961 14.472 140.169 15.96 138.201 19.704C137.817 20.28 137.625 20.04 137.625 19.224V14.472L131.529 15.72V15.96C132.825 15.96 133.785 16.056 133.785 17.736V37.464ZM157.63 3L151.534 4.248V4.488C152.83 4.488 153.79 4.584 153.79 6.264V35.592C153.79 38.376 155.614 39.528 158.062 39.528C160.174 39.528 160.942 38.904 161.518 37.704C161.614 37.512 161.662 37.224 161.422 37.128C161.182 37.032 160.99 37.224 160.846 37.464C160.558 37.944 160.366 38.808 159.022 38.808C157.918 38.808 157.63 37.8 157.63 35.592V3ZM173.601 40.248C170.769 47.688 165.921 47.16 163.569 47.16C158.625 47.16 158.625 51 163.521 51C166.401 51 170.961 49.032 174.321 40.248L183.585 16.104C184.161 15.144 185.121 15.336 186.081 15.336L186.225 15H181.041L180.897 15.336C181.905 15.336 183.105 15.144 182.769 16.344L175.521 35.256L168.225 16.248C167.937 15.144 169.137 15.336 170.097 15.336L170.001 15H161.697L161.793 15.336C162.753 15.336 163.713 15.144 164.337 16.2L173.601 40.248Z" fill="white"/>
</svg>
